<?xml version="1.0" encoding="UTF-8" standalone="no"?>
<!-- Created with Inkscape (http://www.inkscape.org/) -->

<svg
   width="100mm"
   height="100mm"
   viewBox="0 0 100 100"
   version="1.1"
   id="svg185"
   xml:space="preserve"
   sodipodi:docname="check.svg"
   inkscape:version="1.2.1 (9c6d41e410, 2022-07-14)"
   xmlns:inkscape="http://www.inkscape.org/namespaces/inkscape"
   xmlns:sodipodi="http://sodipodi.sourceforge.net/DTD/sodipodi-0.dtd"
   xmlns="http://www.w3.org/2000/svg"
   xmlns:svg="http://www.w3.org/2000/svg"><sodipodi:namedview
     id="namedview187"
     pagecolor="#ffffff"
     bordercolor="#666666"
     borderopacity="1.0"
     inkscape:showpageshadow="2"
     inkscape:pageopacity="0.0"
     inkscape:pagecheckerboard="0"
     inkscape:deskcolor="#d1d1d1"
     inkscape:document-units="mm"
     showgrid="false"
     inkscape:zoom="1.1893044"
     inkscape:cx="261.91781"
     inkscape:cy="236.69298"
     inkscape:window-width="1920"
     inkscape:window-height="992"
     inkscape:window-x="1912"
     inkscape:window-y="-8"
     inkscape:window-maximized="1"
     inkscape:current-layer="layer1" /><defs
     id="defs182" /><g
     inkscape:label="Layer 1"
     inkscape:groupmode="layer"
     id="layer1"><path
       style="fill:#55d400;stroke-width:0.999996"
       d="M 43.862512,94.712413 C 15.730451,90.699334 -1.6463936,62.296895 7.4148262,35.138707 15.259938,11.625419 42.073472,-1.0568645 65.706201,7.5680123 c 2.568159,0.9372617 7.85566,3.5095267 8.537376,4.1532617 0.209759,0.198076 -4.35734,6.113482 -4.872729,6.311254 -0.23152,0.08884 -1.647877,-0.445865 -3.14745,-1.188242 C 32.17362,-0.01232469 -2.3883893,41.429468 20.439835,71.741358 c 24.830934,32.971142 76.435578,6.89433 64.847169,-32.768511 -0.220322,-0.754078 -0.400578,-1.487329 -0.400578,-1.62945 0,-0.842597 5.622515,-7.436956 5.929419,-6.954314 4.448792,6.996119 5.568431,23.224161 2.297982,33.306676 -6.722014,20.72341 -27.9025,34.062097 -49.251315,31.016654 z M 48.462499,71.318439 C 47.976318,70.977905 46.697503,68.943628 45.62069,66.797831 43.44347,62.459208 40.883233,58.320225 38.360969,55.061456 36.552875,52.725391 36.073966,52.180005 32.618256,48.52158 c -3.657561,-3.872111 -2.739637,-7.98145 1.782862,-7.98145 3.031059,0 10.93846,8.530756 15.552024,16.778018 1.20503,2.154125 0.981217,2.301556 3.894104,-2.56509 9.039192,-15.102042 29.772122,-43.555178 33.153272,-45.4983661 2.684499,-1.5428146 6.127742,0.5610274 6.127742,3.7440831 0,1.259123 -0.343038,1.758017 -6.295952,9.15638 C 77.205964,34.118929 69.443725,45.27473 60.11289,60.556012 52.72483,72.655578 51.70999,73.593071 48.462499,71.318439 Z"
       id="path428" /></g></svg>
