<?xml version="1.0" encoding="UTF-8" standalone="no"?>
<!-- Created with Inkscape (http://www.inkscape.org/) -->

<svg
   width="100mm"
   height="100mm"
   viewBox="0 0 100 100"
   version="1.1"
   id="svg5"
   inkscape:version="1.2.1 (9c6d41e410, 2022-07-14)"
   sodipodi:docname="not_checked.svg"
   xmlns:inkscape="http://www.inkscape.org/namespaces/inkscape"
   xmlns:sodipodi="http://sodipodi.sourceforge.net/DTD/sodipodi-0.dtd"
   xmlns="http://www.w3.org/2000/svg"
   xmlns:svg="http://www.w3.org/2000/svg">
  <sodipodi:namedview
     id="namedview7"
     pagecolor="#ffffff"
     bordercolor="#666666"
     borderopacity="1.0"
     inkscape:showpageshadow="2"
     inkscape:pageopacity="0.0"
     inkscape:pagecheckerboard="0"
     inkscape:deskcolor="#d1d1d1"
     inkscape:document-units="mm"
     showgrid="false"
     inkscape:zoom="0.2102413"
     inkscape:cx="64.211931"
     inkscape:cy="563.63806"
     inkscape:window-width="1920"
     inkscape:window-height="992"
     inkscape:window-x="1912"
     inkscape:window-y="-8"
     inkscape:window-maximized="1"
     inkscape:current-layer="layer1" />
  <defs
     id="defs2" />
  <g
     inkscape:label="Layer 1"
     inkscape:groupmode="layer"
     id="layer1">
    <path
       style="fill:#d40000;stroke-width:1"
       d="m 43.560371,94.740599 c -54.80107,-8.61847 -49.6629204,-89.6452002 5.7088,-90.0255772 7.95192,-0.05463 21.05234,2.835723 20.4166,4.504516 -1.2636,3.3169202 -5.98364,6.1600602 -8.76191,5.2777942 -37.95926,-12.0543092 -65.5167004,37.668077 -35.1531,63.427367 30.13581,25.566031 74.15206,-7.94539 57.57157,-43.831672 -1.36738,-2.959537 -1.36738,-2.959537 0.15126,-4.560493 0.83527,-0.880527 2.14719,-2.291297 2.91537,-3.135045 1.39673,-1.534089 1.39673,-1.534089 2.81689,1.005421 18.204159,32.552069 -9.26784,73.06189 -45.66548,67.337689 z m 22.06339,-18.45245 c -1.12097,-0.6836 -9.31352,-9.19894 -14.62224,-15.19837 -2.68115,-3.02998 -2.45605,-3.21306 -11.46053,9.32108 -4.24833,5.91364 -6.59323,6.95645 -9.09704,4.0456 -2.20395,-2.56225 -1.02414,-4.84809 9.63908,-18.67548 1.3984,-1.81335 2.62857,-3.52117 2.73371,-3.79516 0.10514,-0.27399 -1.73807,-3.137039 -4.09601,-6.362329 -11.81233,-16.157333 -12.75389,-18.027167 -10.30885,-20.47221 2.71296,-2.71296 4.87261,-1.721048 8.86549,4.071863 12.18087,17.672121 10.6041,16.561346 15.37603,10.831877 12.35344,-14.832291 28.03463,-31.3586032 30.15793,-31.7832632 2.72714,-0.54543 5.51111,2.2395302 4.81328,4.8150082 -0.18479,0.68205 -2.78344,3.744119 -6.44921,7.599322 -11.48078,12.074042 -27.17513,29.985772 -27.17513,31.014572 0,0.43751 7.02559,8.25405 12.46469,13.86798 2.77939,2.86872 5.05524,5.56329 5.23088,6.19325 1.01313,3.63389 -2.83351,6.50125 -6.07208,4.52626 z"
       id="path1001" />
  </g>
</svg>
